<?xml version="1.0" encoding="utf-8"?>
<!-- Generator: Adobe Illustrator 28.1.0, SVG Export Plug-In . SVG Version: 6.00 Build 0)  -->
<svg version="1.1" id="Calque_1" xmlns="http://www.w3.org/2000/svg" xmlns:xlink="http://www.w3.org/1999/xlink" x="0px" y="0px"
	 viewBox="0 0 29.1 26.2" style="enable-background:new 0 0 29.1 26.2;" xml:space="preserve">
<g id="Groupe_1228">
	<path id="Tracé_435" style="fill:none;stroke:#1C1C1C;stroke-width:2.69;stroke-linejoin:round;" d="M16.4,24.8H9.3c-4.4,0-8-3.6-8-8v-7c0-2.3,1.9-4.2,4.2-4.2h18c2.3,0,4.2,1.9,4.2,4.2l0,0v4.6
		"/>
	<line id="Ligne_188" style="fill:none;stroke:#1C1C1C;stroke-width:2.69;stroke-linejoin:round;" x1="9" y1="5.7" x2="9" y2="0"/>
	<line id="Ligne_189" style="fill:none;stroke:#1C1C1C;stroke-width:2.69;stroke-linejoin:round;" x1="20" y1="5.7" x2="20" y2="0"/>
	<path id="Tracé_436" style="fill:#1C1C1C;" d="M11.8,17c1.3-1,2.4-2.2,3.3-3.6c0.1-0.3,0.2-0.6,0.3-0.9c0,0,0-0.1,0-0.1
		c0-0.1-0.1-0.3-0.2-0.3c-0.1,0-0.1,0-0.2,0c-0.3,0-0.6,0.1-0.8,0.3c-0.3,0.2-0.5,0.5-0.7,0.8c-0.2,0.4-0.4,0.7-0.6,1.1l-2.1-1.2
		l0.6-1.1c0.3-0.6,0.8-1.1,1.3-1.6c0.6-0.5,1.4-0.8,2.3-0.8c0.5,0,1,0.1,1.5,0.4c0.6,0.3,1,0.9,1.2,1.5c0.1,0.4,0.2,0.7,0.2,1.1
		c0,0.7-0.2,1.3-0.6,1.9c-0.5,0.9-1.1,1.7-1.9,2.4 M15.4,17c-0.3,0.3-0.6,0.6-0.9,0.9c0.7,0,1.8,0.1,3.2,0.2l-0.2,2.4
		c-1.6-0.1-2.9-0.2-4-0.2c-0.8,0-1.5,0-2.3-0.1l-0.7-2.2c0,0,0,0,0,0c0.2-0.2,0.6-0.5,1.2-1"/>
</g>
</svg>
