<svg xmlns="http://www.w3.org/2000/svg" xmlns:xlink="http://www.w3.org/1999/xlink" width="14.451" height="11.77" viewBox="0 0 14.451 11.77">
  <defs>
    <clipPath id="clip-path">
      <rect id="Rectangle_5722" data-name="Rectangle 5722" width="14.451" height="11.77" fill="none"/>
    </clipPath>
  </defs>
  <g id="Group_13232" data-name="Group 13232" clip-path="url(#clip-path)">
    <path id="Path_26634" data-name="Path 26634" d="M7.551,15.654,6.2,12.768a.668.668,0,0,0-1.221,0L3.62,15.678l-3.041.463a.687.687,0,0,0-.544.478.726.726,0,0,0,.167.72l2.207,2.268-.521,3.205a.719.719,0,0,0,.277.687.661.661,0,0,0,.716.051l2.716-1.5,2.717,1.507a.657.657,0,0,0,.716-.051.721.721,0,0,0,.277-.687l-.523-3.206L9.9,18.461V16.4H7.551Z" transform="translate(0 -11.867)" fill="#fff"/>
    <path id="Path_26635" data-name="Path 26635" d="M212.413,2.19V0h-1.587V2.19h-2.19V3.777h2.19v2.19h1.587V3.777H214.6V2.19Z" transform="translate(-200.151 0)" fill="#fff"/>
  </g>
</svg>
